<svg width="25" height="25" viewBox="0 0 25 25" fill="none" xmlns="http://www.w3.org/2000/svg">
<path d="M17.22 4.5H16.22H6.78998C5.71998 4.5 4.80998 5.17 4.59998 6.11L3.25998 12.11C2.98998 13.35 4.03998 14.5 5.44998 14.5H9.67998L8.15998 19.44C7.83998 20.47 8.67998 21.5 9.83998 21.5C10.42 21.5 10.98 21.26 11.36 20.85L17.22 14.5H21.22V4.5H17.22ZM10.62 20.17C10.43 20.38 10.14 20.5 9.83998 20.5C9.57998 20.5 9.33998 20.39 9.20998 20.2C9.13998 20.1 9.05998 19.94 9.11998 19.73L10.64 14.79L11.04 13.5H9.67998H5.44998C5.03998 13.5 4.64998 13.33 4.41998 13.04C4.29998 12.89 4.16998 12.64 4.23998 12.32L5.57998 6.32C5.67998 5.85 6.18998 5.5 6.78998 5.5H16.22V14.11L10.62 20.17ZM20.22 13.5H17.22V5.5H20.22V13.5Z" fill="#F1F1F1"/>
</svg>
