<svg width="24" height="25" viewBox="0 0 24 25" fill="none" xmlns="http://www.w3.org/2000/svg">
<path d="M18.77 11.5H14.54L16.06 6.56C16.38 5.53 15.54 4.5 14.38 4.5C13.8 4.5 13.24 4.74 12.86 5.15L7 11.5H3V21.5H7H8H17.43C18.49 21.5 19.41 20.83 19.62 19.89L20.96 13.89C21.23 12.65 20.18 11.5 18.77 11.5ZM7 20.5H4V12.5H7V20.5ZM19.98 13.67L18.64 19.67C18.54 20.15 18.03 20.5 17.43 20.5H8V11.89L13.6 5.83C13.79 5.62 14.08 5.5 14.38 5.5C14.64 5.5 14.88 5.61 15.01 5.8C15.08 5.9 15.16 6.06 15.1 6.27L13.58 11.21L13.18 12.5H14.53H18.76C19.17 12.5 19.56 12.67 19.79 12.96C19.92 13.11 20.05 13.36 19.98 13.67Z" fill="#F1F1F1"/>
</svg>
